{
 "cells": [
  {
   "cell_type": "code",
   "execution_count": null,
   "id": "5a3408f9",
   "metadata": {},
   "outputs": [],
   "source": [
    "import subprocess\n",
    "import os\n",
    "\n",
    "def compress_mp4_to_target_size(input_path, output_path, target_mb=200, initial_crf=28, max_crf=40):\n",
    "    crf = initial_crf\n",
    "    while crf <= max_crf:\n",
    "        cmd = [\n",
    "            \"ffmpeg\", \"-i\", input_path,\n",
    "            \"-vcodec\", \"libx264\", \"-crf\", str(crf),\n",
    "            \"-preset\", \"medium\",\n",
    "            \"-c:a\", \"aac\", \"-b:a\", \"128k\",\n",
    "            \"-strict\", \"-2\",  # <-- Add this line\n",
    "            \"-y\",\n",
    "            output_path\n",
    "        ]\n",
    "        print(f\"Trying CRF={crf}...\")\n",
    "        result = subprocess.run(cmd, capture_output=True, text=True)\n",
    "        if result.returncode != 0:\n",
    "            print(\"ffmpeg failed with error:\")\n",
    "            print(result.stderr)\n",
    "            return\n",
    "        final_size = os.path.getsize(output_path) / (1024 * 1024)\n",
    "        print(f\"Compressed file size: {final_size:.2f} MB\")\n",
    "        if final_size <= target_mb:\n",
    "            print(f\"Success: Output is under {target_mb} MB.\")\n",
    "            return\n",
    "        crf += 2\n",
    "    print(f\"Could not compress below {target_mb} MB. Final size: {final_size:.2f} MB\")\n"
   ]
  },
  {
   "cell_type": "code",
   "execution_count": 4,
   "id": "ba901007",
   "metadata": {},
   "outputs": [
    {
     "name": "stdout",
     "output_type": "stream",
     "text": [
      "Trying CRF=40...\n",
      "ffmpeg failed with error:\n",
      "ffmpeg version N-62897-g0f9f24c Copyright (c) 2000-2014 the FFmpeg developers\n",
      "  built on May  1 2014 22:02:02 with gcc 4.8.2 (GCC)\n",
      "  configuration: --enable-gpl --enable-version3 --disable-w32threads --enable-avisynth --enable-bzlib --enable-fontconfig --enable-frei0r --enable-gnutls --enable-iconv --enable-libass --enable-libbluray --enable-libcaca --enable-libfreetype --enable-libgsm --enable-libilbc --enable-libmodplug --enable-libmp3lame --enable-libopencore-amrnb --enable-libopencore-amrwb --enable-libopenjpeg --enable-libopus --enable-librtmp --enable-libschroedinger --enable-libsoxr --enable-libspeex --enable-libtheora --enable-libtwolame --enable-libvidstab --enable-libvo-aacenc --enable-libvo-amrwbenc --enable-libvorbis --enable-libvpx --enable-libwavpack --enable-libx264 --enable-libx265 --enable-libxavs --enable-libxvid --enable-decklink --enable-zlib\n",
      "  libavutil      52. 80.100 / 52. 80.100\n",
      "  libavcodec     55. 60.103 / 55. 60.103\n",
      "  libavformat    55. 37.102 / 55. 37.102\n",
      "  libavdevice    55. 13.100 / 55. 13.100\n",
      "  libavfilter     4.  5.100 /  4.  5.100\n",
      "  libswscale      2.  6.100 /  2.  6.100\n",
      "  libswresample   0. 18.100 /  0. 18.100\n",
      "  libpostproc    52.  3.100 / 52.  3.100\n",
      "[mov,mp4,m4a,3gp,3g2,mj2 @ 03158880] Could not find codec parameters for stream 1 (Audio: none (Opus / 0x7375704F), 48000 Hz, 2 channels, 95 kb/s): unspecified sample format\n",
      "Consider increasing the value for the 'analyzeduration' and 'probesize' options\n",
      "Guessed Channel Layout for  Input Stream #0.1 : stereo\n",
      "Input #0, mov,mp4,m4a,3gp,3g2,mj2, from 'Z:\\OneDrive\\Gardening_2025\\GenAI_MIT\\Module_1\\SusanDoniz.mp4':\n",
      "  Metadata:\n",
      "    major_brand     : mp42\n",
      "    minor_version   : 0\n",
      "    compatible_brands: isomiso2avc1mp41mp42\n",
      "  Duration: 00:16:38.97, start: 0.000000, bitrate: 2412 kb/s\n",
      "    Stream #0:0(und): Video: h264 (High) (avc1 / 0x31637661), yuv420p(tv, bt709), 1920x1080, 2312 kb/s, 25 fps, 25 tbr, 25 tbn, 50 tbc (default)\n",
      "    Metadata:\n",
      "      handler_name    : L-SMASH Video Handler\n",
      "      encoder         : AVC Coding\n",
      "    Stream #0:1(und): Audio: none (Opus / 0x7375704F), 48000 Hz, stereo, 95 kb/s (default)\n",
      "    Metadata:\n",
      "      handler_name    : Vimeo Isopod Audio Handler\n",
      "[abuffer @ 05205020] Unable to parse option value \"(null)\" as sample format\n",
      "    Last message repeated 1 times\n",
      "[abuffer @ 05205020] Error setting option sample_fmt to value (null).\n",
      "[graph 1 input from stream 0:1 @ 04c44320] Error applying options to the filter.\n",
      "Error opening filters!\n",
      "\n",
      "Could not compress below 200 MB.\n",
      "ffmpeg failed with error:\n",
      "ffmpeg version N-62897-g0f9f24c Copyright (c) 2000-2014 the FFmpeg developers\n",
      "  built on May  1 2014 22:02:02 with gcc 4.8.2 (GCC)\n",
      "  configuration: --enable-gpl --enable-version3 --disable-w32threads --enable-avisynth --enable-bzlib --enable-fontconfig --enable-frei0r --enable-gnutls --enable-iconv --enable-libass --enable-libbluray --enable-libcaca --enable-libfreetype --enable-libgsm --enable-libilbc --enable-libmodplug --enable-libmp3lame --enable-libopencore-amrnb --enable-libopencore-amrwb --enable-libopenjpeg --enable-libopus --enable-librtmp --enable-libschroedinger --enable-libsoxr --enable-libspeex --enable-libtheora --enable-libtwolame --enable-libvidstab --enable-libvo-aacenc --enable-libvo-amrwbenc --enable-libvorbis --enable-libvpx --enable-libwavpack --enable-libx264 --enable-libx265 --enable-libxavs --enable-libxvid --enable-decklink --enable-zlib\n",
      "  libavutil      52. 80.100 / 52. 80.100\n",
      "  libavcodec     55. 60.103 / 55. 60.103\n",
      "  libavformat    55. 37.102 / 55. 37.102\n",
      "  libavdevice    55. 13.100 / 55. 13.100\n",
      "  libavfilter     4.  5.100 /  4.  5.100\n",
      "  libswscale      2.  6.100 /  2.  6.100\n",
      "  libswresample   0. 18.100 /  0. 18.100\n",
      "  libpostproc    52.  3.100 / 52.  3.100\n",
      "[mov,mp4,m4a,3gp,3g2,mj2 @ 03158880] Could not find codec parameters for stream 1 (Audio: none (Opus / 0x7375704F), 48000 Hz, 2 channels, 95 kb/s): unspecified sample format\n",
      "Consider increasing the value for the 'analyzeduration' and 'probesize' options\n",
      "Guessed Channel Layout for  Input Stream #0.1 : stereo\n",
      "Input #0, mov,mp4,m4a,3gp,3g2,mj2, from 'Z:\\OneDrive\\Gardening_2025\\GenAI_MIT\\Module_1\\SusanDoniz.mp4':\n",
      "  Metadata:\n",
      "    major_brand     : mp42\n",
      "    minor_version   : 0\n",
      "    compatible_brands: isomiso2avc1mp41mp42\n",
      "  Duration: 00:16:38.97, start: 0.000000, bitrate: 2412 kb/s\n",
      "    Stream #0:0(und): Video: h264 (High) (avc1 / 0x31637661), yuv420p(tv, bt709), 1920x1080, 2312 kb/s, 25 fps, 25 tbr, 25 tbn, 50 tbc (default)\n",
      "    Metadata:\n",
      "      handler_name    : L-SMASH Video Handler\n",
      "      encoder         : AVC Coding\n",
      "    Stream #0:1(und): Audio: none (Opus / 0x7375704F), 48000 Hz, stereo, 95 kb/s (default)\n",
      "    Metadata:\n",
      "      handler_name    : Vimeo Isopod Audio Handler\n",
      "[abuffer @ 05205020] Unable to parse option value \"(null)\" as sample format\n",
      "    Last message repeated 1 times\n",
      "[abuffer @ 05205020] Error setting option sample_fmt to value (null).\n",
      "[graph 1 input from stream 0:1 @ 04c44320] Error applying options to the filter.\n",
      "Error opening filters!\n",
      "\n",
      "Could not compress below 200 MB.\n"
     ]
    }
   ],
   "source": [
    "# Example usage:\n",
    "compress_mp4_to_target_size(\n",
    "    r\"Z:\\OneDrive\\Gardening_2025\\GenAI_MIT\\Module_1\\SusanDoniz.mp4\",\n",
    "    r\"Z:\\OneDrive\\Gardening_2025\\GenAI_MIT\\Module_1\\SusanDonizSmall.mp4\",\n",
    "    target_mb=200\n",
    ")"
   ]
  },
  {
   "cell_type": "markdown",
   "id": "2cbfe1ae",
   "metadata": {},
   "source": []
  }
 ],
 "metadata": {
  "kernelspec": {
   "display_name": "git_env (3.13.4)",
   "language": "python",
   "name": "python3"
  },
  "language_info": {
   "codemirror_mode": {
    "name": "ipython",
    "version": 3
   },
   "file_extension": ".py",
   "mimetype": "text/x-python",
   "name": "python",
   "nbconvert_exporter": "python",
   "pygments_lexer": "ipython3",
   "version": "3.13.4"
  }
 },
 "nbformat": 4,
 "nbformat_minor": 5
}
